<?xml version="1.0" encoding="UTF-8" standalone="no"?>
<svg
   xml:space="preserve"
   width="814.09998"
   height="999.90002"
   version="1.1"
   id="svg1"
   sodipodi:docname="apple.svg"
   inkscape:version="1.4.4 (1:1.4.4+202605061432+dcaf3e7d9e)"
   xmlns:inkscape="http://www.inkscape.org/namespaces/inkscape"
   xmlns:sodipodi="http://sodipodi.sourceforge.net/DTD/sodipodi-0.dtd"
   xmlns="http://www.w3.org/2000/svg"
   xmlns:svg="http://www.w3.org/2000/svg"><defs
   id="defs1" /><sodipodi:namedview
   id="namedview1"
   pagecolor="#ffffff"
   bordercolor="#666666"
   borderopacity="1.0"
   inkscape:showpageshadow="2"
   inkscape:pageopacity="0.0"
   inkscape:pagecheckerboard="0"
   inkscape:deskcolor="#d1d1d1"
   inkscape:zoom="1.22"
   inkscape:cx="407.37705"
   inkscape:cy="500"
   inkscape:window-width="3440"
   inkscape:window-height="1404"
   inkscape:window-x="2048"
   inkscape:window-y="0"
   inkscape:window-maximized="1"
   inkscape:current-layer="svg1" />
  <path
   d="m 788.1,340.9 c -5.8,4.5 -108.2,62.2 -108.2,190.5 0,148.4 130.3,200.9 134.2,202.2 -0.6,3.2 -20.7,71.9 -68.7,141.9 -42.8,61.6 -87.5,123.1 -155.5,123.1 -68,0 -85.5,-39.5 -164,-39.5 -76.5,0 -103.7,40.8 -165.9,40.8 -62.2,0 -105.6,-57 -155.5,-127 C 46.7,790.7 0,663 0,541.8 0,347.4 126.4,244.3 250.8,244.3 c 66.1,0 121.2,43.4 162.7,43.4 39.5,0 101.1,-46 176.3,-46 28.5,0 130.9,2.6 198.3,99.2 z M 554.1,159.4 C 585.2,122.5 607.2,71.3 607.2,20.1 607.2,13 606.6,5.8 605.3,0 554.7,1.9 494.5,33.7 458.2,75.8 c -28.5,32.4 -55.1,83.6 -55.1,135.5 0,7.8 1.3,15.6 1.9,18.1 3.2,0.6 8.4,1.3 13.6,1.3 45.4,0 102.5,-30.4 135.5,-71.3 z"
   id="path1" />
</svg>
