<svg xmlns="http://www.w3.org/2000/svg" version="1.1" xmlns:xlink="http://www.w3.org/1999/xlink" width="120" height="120" viewBox="0 0 31.749994 31.750013" id="svg1" inkscape:version="1.4.3 (1:1.4.3+202512261034+0d15f75042)" sodipodi:docname="osiris-social-icon.svg" inkscape:export-filename="/home/matia/Downloads/osiris-social-icon.jpg" inkscape:export-xdpi="204.79994" inkscape:export-ydpi="204.79994" xmlns:inkscape="http://www.inkscape.org/namespaces/inkscape" xmlns:sodipodi="http://sodipodi.sourceforge.net/DTD/sodipodi-0.dtd" xmlns:svg="http://www.w3.org/2000/svg" xmlns:rdf="http://www.w3.org/1999/02/22-rdf-syntax-ns#" xmlns:cc="http://creativecommons.org/ns#" xmlns:dc="http://purl.org/dc/elements/1.1/"><title id="title1">OSIRIS JSON Favicon</title><sodipodi:namedview id="namedview1" pagecolor="#ffffff" bordercolor="#666666" borderopacity="1.0" inkscape:showpageshadow="2" inkscape:pageopacity="0.0" inkscape:pagecheckerboard="0" inkscape:deskcolor="#d1d1d1" inkscape:document-units="mm" inkscape:zoom="2.8284271" inkscape:cx="45.608388" inkscape:cy="-6.0104077" inkscape:window-width="1778" inkscape:window-height="1258" inkscape:window-x="2640" inkscape:window-y="0" inkscape:window-maximized="0" inkscape:current-layer="layer1" showgrid="true" showguides="true">
    <sodipodi:guide position="15.874997,35.718765" orientation="1,0" id="guide1" inkscape:locked="false"></sodipodi:guide>
    <sodipodi:guide position="31.749995,15.875007" orientation="0,-1" id="guide2" inkscape:locked="false"></sodipodi:guide>
    <inkscape:grid id="grid1" units="mm" originx="0" originy="0" spacingx="0.26458328" spacingy="0.26458344" empcolor="#0099e5" empopacity="0.30196078" color="#0099e5" opacity="0.14901961" empspacing="5" enabled="true" visible="true"></inkscape:grid>
  </sodipodi:namedview><defs id="defs1">
    <linearGradient id="linearGradient1" inkscape:collect="always">
      <stop style="stop-color:#23355f;stop-opacity:1;" offset="0" id="stop1"></stop>
      <stop style="stop-color:#011826;stop-opacity:1;" offset="1" id="stop2"></stop>
    </linearGradient>
    <radialGradient inkscape:collect="always" xlink:href="#linearGradient1" id="radialGradient2" cx="14.704045" cy="7.1407671" fx="14.704045" fy="7.1407671" r="15.875004" gradientTransform="matrix(0.99831312,-7.5123842e-4,0.00169645,2.2544114,1.18364,-20.055942)" gradientUnits="userSpaceOnUse"></radialGradient>
  </defs><g inkscape:label="Layer 1" inkscape:groupmode="layer" id="layer1">
    <rect style="fill:url(#radialGradient2);stroke-width:2.64583;fill-opacity:1" id="rect1" width="31.750008" height="31.749989" x="-3.8146973e-06" y="5.7220459e-06" inkscape:label="teal-bg"></rect>
    <g id="g1" inkscape:label="group" style="fill:#ffffff" transform="matrix(1.597883,0,0,1.597883,5.3054609,8.4785048)">
      <path style="font-weight:bold;font-size:10.5833px;line-height:1.25;font-family:D-DIN;-inkscape-font-specification:'D-DIN Bold';fill:#ffbe19;fill-opacity:1;stroke-width:0.262276" d="M 2.6460932,9.2578499 2.6458334,8.2020803 c -0.5291667,0 -0.79375,-0.2645833 -0.79375,-0.5291665 V 6.0854144 c 0,-0.7938207 -0.2645833,-1.3229162 -0.7881915,-1.462131 C 1.5875001,4.497915 1.8520834,3.9690062 1.8520834,3.1749988 V 1.5874994 c 0,-0.2645832 0.2645833,-0.5291665 0.79375,-0.5291665 L 2.6460932,5.8159089e-4 C 1.3229167,0 0.79375003,0.26458323 0.79375003,1.3229162 V 3.1749988 C 0.79375003,3.969032 0.52916668,4.2333317 0,4.2333317 v 0.7937497 c 0.52916668,0 0.79375003,0.2642956 0.79375003,1.058333 V 7.937497 c 0,1.058333 0.52916667,1.3229162 1.85234317,1.3203529 z" id="text1-3" aria-label="{" sodipodi:nodetypes="ccsscssccssccssc" inkscape:label="left-curly-bracket"></path>
      <path style="font-weight:bold;font-size:10.5833px;line-height:1.25;font-family:D-DIN;-inkscape-font-specification:'D-DIN Bold';fill:#ffffff;fill-opacity:1;stroke-width:0.248591" d="m 3.9687501,5.2916647 c 0,1.8520826 0.7937501,2.6458323 2.6458334,2.6458323 1.8520834,0 2.6458335,-0.7937497 2.6458335,-2.6458323 V 3.9687485 c 0,-1.8520826 -0.7937501,-2.6458323 -2.6458335,-2.6458323 -1.8520833,0 -2.6458334,0.7937497 -2.6458334,2.6458323 z m 2.6458334,1.5874994 c -1.0583333,0 -1.3229167,-0.7937497 -1.3229167,-1.5874994 V 3.9687485 c 0,-0.7937497 0.2645834,-1.5874994 1.3229167,-1.5874994 1.0583334,0 1.3229168,0.7937497 1.3229168,1.5874994 v 1.3229162 c 0,0.8027993 -0.2645834,1.5874994 -1.3229168,1.5874994 z" id="text1-2" aria-label="O" sodipodi:nodetypes="ssssssssssssss" inkscape:label="o-letter"></path>
      <path style="font-weight:bold;font-size:10.5833px;line-height:1.25;font-family:D-DIN;-inkscape-font-specification:'D-DIN Bold';fill:#ffbe19;fill-opacity:1;stroke-width:0.262276" d="M 10.583335,1.8384355e-5 10.583595,1.0557879 c 0.529167,0 0.79375,0.2645833 0.79375,0.5291665 v 1.5874994 c 0,0.7938207 0.264583,1.3229162 0.788192,1.462131 -0.523609,0.1253684 -0.788192,0.6542772 -0.788192,1.4482846 v 1.5874994 c 0,0.2645832 -0.264583,0.5291665 -0.79375,0.5291665 l -2.6e-4,1.0577513 C 11.906512,9.2578682 12.435678,8.993285 12.435678,7.934952 V 6.0828694 c 0,-0.7940332 0.264584,-1.0583329 0.79375,-1.0583329 V 4.2307868 c -0.529166,0 -0.79375,-0.2642956 -0.79375,-1.058333 V 1.3203712 c 0,-1.05833282 -0.529166,-1.32291582 -1.852343,-1.320352815645 z" id="text1-3-3" aria-label="{" sodipodi:nodetypes="ccsscssccssccssc" inkscape:label="right-curly-bracket"></path>
    </g>
  </g><metadata id="metadata1">
    <rdf:rdf>
      <cc:work rdf:about="">
        <dc:title>OSIRIS JSON Favicon</dc:title>
        <dc:creator>
          <cc:agent>
            <dc:title>Tia Zanella @skhell</dc:title>
          </cc:agent>
        </dc:creator>
        <dc:rights>
          <cc:agent>
            <dc:title>Tia Zanella @skhell</dc:title>
          </cc:agent>
        </dc:rights>
        <dc:publisher>
          <cc:agent>
            <dc:title>Tia Zanella @skhell</dc:title>
          </cc:agent>
        </dc:publisher>
        <dc:subject>
          <rdf:bag>
            <rdf:li>OSIRIS JSON Favicon</rdf:li>
          </rdf:bag>
        </dc:subject>
        <dc:description>OSIRIS JSON Favicon</dc:description>
        <dc:date>12-12-2025</dc:date>
      </cc:work>
    </rdf:rdf>
  </metadata></svg>